{
  "accessors": [
    {
      "bufferView": 2,
      "componentType": 5126,
      "count": 1431,
      "max": [
        6.0697798728942871,
        6.6626200675964355,
        10.352190017700195
      ],
      "min": [
        -7.4235601425170898,
        -2.9178800582885742,
        -0.18392999470233917
      ],
      "type": "VEC3"
    },
    {
      "bufferView": 2,
      "byteOffset": 17172,
      "componentType": 5126,
      "count": 1431,
      "max": [
        0.99462312459945679,
        0.99928593635559082,
        0.99974489212036133
      ],
      "min": [
        -0.99781739711761475,
        -0.99705582857131958,
        -0.99516391754150391
      ],
      "type": "VEC3"
    },
    {
      "bufferView": 3,
      "componentType": 5126,
      "count": 1431,
      "max": [
        0.99993264675140381,
        0.99990367889404297,
        0.19697862863540649,
        1
      ],
      "min": [
        -0.079390093684196472,
        -0.99993836879730225,
        -0.18296660482883453,
        -1
      ],
      "type": "VEC4"
    },
    {
      "bufferView": 1,
      "componentType": 5126,
      "count": 1431,
      "max": [
        0.6605299711227417,
        0.94505000114440918
      ],
      "min": [
        0.1979299932718277,
        0.72402000427246094
      ],
      "type": "VEC2"
    },
    {
      "bufferView": 0,
      "componentType": 5125,
      "count": 1431,
      "max": [
        1430
      ],
      "min": [
        0
      ],
      "type": "SCALAR"
    }
  ],
  "asset": {
    "generator": "Sketchfab (OSG glTF plugin)",
    "version": "2.0"
  },
  "bufferViews": [
    {
      "buffer": 0,
      "byteLength": 5724,
      "byteOffset": 0,
      "name": "floatBufferViews",
      "target": 34963
    },
    {
      "buffer": 0,
      "byteLength": 11448,
      "byteOffset": 5724,
      "byteStride": 8,
      "name": "floatBufferViews",
      "target": 34962
    },
    {
      "buffer": 0,
      "byteLength": 34344,
      "byteOffset": 17172,
      "byteStride": 12,
      "name": "floatBufferViews",
      "target": 34962
    },
    {
      "buffer": 0,
      "byteLength": 22896,
      "byteOffset": 51516,
      "byteStride": 16,
      "name": "floatBufferViews",
      "target": 34962
    }
  ],
  "buffers": [
    {
      "byteLength": 74412,
      "uri": "scene.bin"
    }
  ],
  "images": [
    {
      "uri": "textures/Material_baseColor.png"
    }
  ],
  "materials": [
    {
      "doubleSided": true,
      "emissiveFactor": [
        0,
        0,
        0
      ],
      "name": "Material",
      "pbrMetallicRoughness": {
        "baseColorFactor": [
          1,
          1,
          1,
          1
        ],
        "baseColorTexture": {
          "index": 0,
          "texCoord": 0
        },
        "metallicFactor": 0,
        "roughnessFactor": 0.59999999999999998
      }
    }
  ],
  "meshes": [
    {
      "name": "Arbol3_0",
      "primitives": [
        {
          "attributes": {
            "NORMAL": 1,
            "POSITION": 0,
            "TANGENT": 2,
            "TEXCOORD_0": 3
          },
          "indices": 4,
          "material": 0,
          "mode": 4
        }
      ]
    }
  ],
  "nodes": [
    {
      "mesh": 0,
      "name": "Arbol3_0",
      "rotation": [
        0,
        0,
        -1,
        0
      ],
      "scale": [
        90,
        90,
        90
      ]
    }
  ],
  "samplers": [
    {
      "magFilter": 9729,
      "minFilter": 9987,
      "wrapS": 10497,
      "wrapT": 10497
    }
  ],
  "scene": 0,
  "scenes": [
    {
      "name": "OSG_Scene",
      "nodes": [
        0
      ]
    }
  ],
  "textures": [
    {
      "sampler": 0,
      "source": 0
    }
  ]
}

